<svg xmlns="http://www.w3.org/2000/svg" viewBox="0 0 900 700" role="img" aria-labelledby="title desc">
  <title id="title">Butterfly Pea Tea</title>
  <desc id="desc">A premium cream-toned product illustration with blue butterfly pea tea flowers and a clear glass cup.</desc>
  <defs>
    <radialGradient id="warmGlow" cx="48%" cy="34%" r="62%">
      <stop offset="0" stop-color="#fff7df"/>
      <stop offset="0.58" stop-color="#f6dfab"/>
      <stop offset="1" stop-color="#e9c17d"/>
    </radialGradient>
    <linearGradient id="teaBlue" x1="0" x2="1" y1="0" y2="1">
      <stop offset="0" stop-color="#2f74c8"/>
      <stop offset="0.46" stop-color="#3444a8"/>
      <stop offset="1" stop-color="#772fa6"/>
    </linearGradient>
    <linearGradient id="glass" x1="0" x2="1" y1="0" y2="1">
      <stop offset="0" stop-color="#ffffff" stop-opacity="0.82"/>
      <stop offset="0.55" stop-color="#dff2ff" stop-opacity="0.22"/>
      <stop offset="1" stop-color="#ffffff" stop-opacity="0.62"/>
    </linearGradient>
    <filter id="shadow" x="-20%" y="-20%" width="140%" height="150%">
      <feDropShadow dx="0" dy="24" stdDeviation="18" flood-color="#465640" flood-opacity="0.24"/>
    </filter>
    <filter id="softShadow" x="-30%" y="-30%" width="160%" height="160%">
      <feDropShadow dx="0" dy="12" stdDeviation="9" flood-color="#354d41" flood-opacity="0.16"/>
    </filter>
  </defs>
  <rect width="900" height="700" rx="44" fill="#fff8ea"/>
  <circle cx="450" cy="345" r="286" fill="url(#warmGlow)" opacity="0.9"/>
  <ellipse cx="450" cy="585" rx="285" ry="54" fill="#b68b58" opacity="0.18"/>

  <g filter="url(#shadow)">
    <path d="M300 260h300l-38 250c-7 45-45 78-91 78h-42c-46 0-84-33-91-78l-38-250Z" fill="url(#glass)" stroke="#ffffff" stroke-width="8"/>
    <path d="M329 352h242l-24 153c-6 36-36 63-73 63h-48c-37 0-68-27-73-63l-24-153Z" fill="url(#teaBlue)" opacity="0.92"/>
    <ellipse cx="450" cy="260" rx="153" ry="36" fill="#ffffff" opacity="0.76" stroke="#f9ffff" stroke-width="7"/>
    <ellipse cx="450" cy="351" rx="121" ry="26" fill="#4063c8" opacity="0.38"/>
    <path d="M575 319c48 6 82 38 76 75-6 40-53 61-101 49" fill="none" stroke="#fdf8ee" stroke-width="20" stroke-linecap="round" opacity="0.92"/>
    <path d="M577 337c32 5 53 24 50 48-4 25-35 40-67 33" fill="none" stroke="#d8b06e" stroke-width="7" stroke-linecap="round" opacity="0.62"/>
  </g>

  <g filter="url(#softShadow)">
    <g transform="translate(178 218) rotate(-18)">
      <ellipse cx="0" cy="0" rx="55" ry="31" fill="#3654b6"/>
      <ellipse cx="56" cy="-4" rx="55" ry="31" fill="#406ed0"/>
      <ellipse cx="5" cy="46" rx="47" ry="28" fill="#6c38ad"/>
      <ellipse cx="58" cy="42" rx="47" ry="28" fill="#2e8dd7"/>
      <circle cx="30" cy="22" r="19" fill="#f7cf65"/>
    </g>
    <g transform="translate(699 230) rotate(23) scale(.88)">
      <ellipse cx="0" cy="0" rx="55" ry="31" fill="#3654b6"/>
      <ellipse cx="56" cy="-4" rx="55" ry="31" fill="#406ed0"/>
      <ellipse cx="5" cy="46" rx="47" ry="28" fill="#6c38ad"/>
      <ellipse cx="58" cy="42" rx="47" ry="28" fill="#2e8dd7"/>
      <circle cx="30" cy="22" r="19" fill="#f7cf65"/>
    </g>
    <g transform="translate(235 484) rotate(12) scale(.78)">
      <ellipse cx="0" cy="0" rx="55" ry="31" fill="#3654b6"/>
      <ellipse cx="56" cy="-4" rx="55" ry="31" fill="#406ed0"/>
      <ellipse cx="5" cy="46" rx="47" ry="28" fill="#6c38ad"/>
      <ellipse cx="58" cy="42" rx="47" ry="28" fill="#2e8dd7"/>
      <circle cx="30" cy="22" r="19" fill="#f7cf65"/>
    </g>
  </g>

  <path d="M206 397c42-44 97-63 159-54" fill="none" stroke="#73924f" stroke-width="10" stroke-linecap="round" opacity="0.58"/>
  <path d="M640 459c46-20 84-51 111-95" fill="none" stroke="#73924f" stroke-width="10" stroke-linecap="round" opacity="0.48"/>
</svg>
